<svg width="127" height="32" viewBox="0 0 127 32" fill="none" xmlns="http://www.w3.org/2000/svg">
<path d="M83.1451 32L75.2305 0H79.0011L82.5425 15.184C83.5878 19.6533 84.8145 25.2373 85.2251 28.2987H85.3211C85.7265 25.5307 87.2678 19.7013 88.3611 15.2053L91.9931 0H95.6358L87.3691 32H83.1451Z" fill="#46C3D7"/>
<path d="M102.56 0V32H99.0508V0H102.56Z" fill="#46C3D7"/>
<path d="M108.941 0H116.056C123.437 0 126.744 5.15733 126.744 15.1573C126.744 26.0213 123.741 32 115.539 32H108.941V0ZM112.467 28.9973H115.4C121.251 28.9973 123.107 24.352 123.107 15.28C123.107 6.784 120.925 3.03467 115.448 3.03467H112.467V28.9973Z" fill="#46C3D7"/>
<path d="M66.2227 0H69.732L77.46 32H73.9507L66.2227 0Z" fill="#46C3D7"/>
<path d="M63.9452 5.104L57.4492 32H60.9586L65.6999 12.368L63.9452 5.104Z" fill="#46C3D7"/>
<path d="M0 0H7.11467C14.496 0 17.8027 5.15733 17.8027 15.1573C17.8027 26.0213 14.8053 32 6.59733 32H0V0ZM3.52533 28.9973H6.45867C12.3093 28.9973 14.1653 24.352 14.1653 15.28C14.1653 6.784 11.984 3.03467 6.50667 3.03467H3.52533V28.9973Z" fill="#0A377D"/>
<path d="M25.9323 21.8453L23.607 32H20.0977L27.8257 0H32.3803L40.3377 32H36.6043L34.247 21.8453H25.9323ZM33.5323 18.7253C31.6763 10.864 30.4763 5.86133 30.0497 3.312H29.9377C29.5003 6.096 28.1937 11.856 26.6203 18.7253H33.5323Z" fill="#0A377D"/>
<path d="M45.4016 3.136H38.2656V0H56.0416V3.136H48.911V32H45.4016V3.136Z" fill="#0A377D"/>
<path d="M65.1802 0H61.6655L53.9375 32H57.4522L65.1802 0Z" fill="#0A377D"/>
<path d="M67.4578 5.104L65.7031 12.3733L70.4445 32H73.9538C73.9538 32 69.6391 14.1387 67.4578 5.104Z" fill="#0A377D"/>
<path d="M65.7 12.3733L67.4546 5.104C66.7186 2.048 66.2226 0 66.2226 0H65.1773C65.1773 0 64.6813 2.048 63.9453 5.104L65.7 12.3733Z" fill="#287FAA"/>
</svg>